<svg xmlns="http://www.w3.org/2000/svg" viewBox="0 0 1200 900" role="img" aria-labelledby="title desc">
  <title id="title">World Map for Humans</title>
  <desc id="desc">An abstract preview of layered geographic context using water, coast, and urban pattern motifs.</desc>
  <rect width="1200" height="900" fill="#e9e5d9"/>
  <path d="M-40 184C120 81 245 109 385 205s260 121 388 38 279-132 467-15V679c-190-40-337-10-471 81s-293 95-441 3S116 634-40 713Z" fill="#8cb9bb"/>
  <path d="M-40 184C120 81 245 109 385 205s260 121 388 38 279-132 467-15" fill="none" stroke="#f7f1e3" stroke-width="18"/>
  <path d="M-40 184C120 81 245 109 385 205s260 121 388 38 279-132 467-15" fill="none" stroke="#173a3c" stroke-width="6"/>
  <g fill="#e25f3d" opacity=".82">
    <circle cx="178" cy="212" r="13"/><circle cx="219" cy="241" r="8"/><circle cx="306" cy="276" r="16"/>
    <circle cx="517" cy="283" r="10"/><circle cx="558" cy="310" r="18"/><circle cx="603" cy="294" r="7"/>
    <circle cx="819" cy="268" r="13"/><circle cx="864" cy="233" r="8"/><circle cx="926" cy="217" r="16"/>
  </g>
  <rect x="70" y="620" width="785" height="190" fill="#f3efe4" stroke="#173a3c" stroke-width="2"/>
  <text x="105" y="682" fill="#e25f3d" font-family="Consolas, monospace" font-size="18" font-weight="700" letter-spacing="4">AN ATLAS WITHOUT BORDERS</text>
  <text x="103" y="755" fill="#173a3c" font-family="Georgia, serif" font-size="64">World Map for Humans</text>
  <text x="106" y="790" fill="#6e7069" font-family="Arial, sans-serif" font-size="18">Coast · water · settlement · satellite observation</text>
</svg>
